<mxfile host="Electron" modified="2024-01-17T05:37:27.886Z" agent="Mozilla/5.0 (Windows NT 10.0; Win64; x64) AppleWebKit/537.36 (KHTML, like Gecko) draw.io/22.1.18 Chrome/120.0.6099.199 Electron/28.1.2 Safari/537.36" etag="N_n6dgj3fn4b-q6qhjPN" version="22.1.18" type="device">
  <diagram name="Page-1" id="8c4yo66zA6bXgy1FcRXG">
    <mxGraphModel dx="1098" dy="640" grid="1" gridSize="10" guides="1" tooltips="1" connect="1" arrows="1" fold="1" page="1" pageScale="1" pageWidth="850" pageHeight="1100" math="0" shadow="0">
      <root>
        <mxCell id="0" />
        <mxCell id="1" parent="0" />
        <mxCell id="NqyFJvK8Z3d0CHuQJ1PT-3" style="edgeStyle=orthogonalEdgeStyle;rounded=0;orthogonalLoop=1;jettySize=auto;html=1;entryX=0.5;entryY=0;entryDx=0;entryDy=0;" edge="1" parent="1" source="NqyFJvK8Z3d0CHuQJ1PT-1" target="NqyFJvK8Z3d0CHuQJ1PT-2">
          <mxGeometry relative="1" as="geometry" />
        </mxCell>
        <mxCell id="NqyFJvK8Z3d0CHuQJ1PT-1" value="START" style="rounded=1;whiteSpace=wrap;html=1;" vertex="1" parent="1">
          <mxGeometry x="335" y="20" width="180" height="60" as="geometry" />
        </mxCell>
        <mxCell id="NqyFJvK8Z3d0CHuQJ1PT-12" style="edgeStyle=orthogonalEdgeStyle;rounded=0;orthogonalLoop=1;jettySize=auto;html=1;exitX=0.5;exitY=1;exitDx=0;exitDy=0;entryX=0.5;entryY=0;entryDx=0;entryDy=0;" edge="1" parent="1" source="NqyFJvK8Z3d0CHuQJ1PT-2" target="NqyFJvK8Z3d0CHuQJ1PT-4">
          <mxGeometry relative="1" as="geometry" />
        </mxCell>
        <mxCell id="NqyFJvK8Z3d0CHuQJ1PT-2" value="Display Project Logo" style="rounded=1;whiteSpace=wrap;html=1;" vertex="1" parent="1">
          <mxGeometry x="335" y="110" width="180" height="40" as="geometry" />
        </mxCell>
        <mxCell id="NqyFJvK8Z3d0CHuQJ1PT-7" style="edgeStyle=orthogonalEdgeStyle;rounded=0;orthogonalLoop=1;jettySize=auto;html=1;exitX=0.5;exitY=1;exitDx=0;exitDy=0;entryX=0.5;entryY=0;entryDx=0;entryDy=0;" edge="1" parent="1" source="NqyFJvK8Z3d0CHuQJ1PT-4" target="NqyFJvK8Z3d0CHuQJ1PT-5">
          <mxGeometry relative="1" as="geometry" />
        </mxCell>
        <mxCell id="NqyFJvK8Z3d0CHuQJ1PT-4" value="Ask for Name input" style="rounded=1;whiteSpace=wrap;html=1;" vertex="1" parent="1">
          <mxGeometry x="320" y="180" width="210" height="50" as="geometry" />
        </mxCell>
        <mxCell id="NqyFJvK8Z3d0CHuQJ1PT-13" style="edgeStyle=orthogonalEdgeStyle;rounded=0;orthogonalLoop=1;jettySize=auto;html=1;exitX=0.5;exitY=1;exitDx=0;exitDy=0;entryX=0.5;entryY=0;entryDx=0;entryDy=0;" edge="1" parent="1" source="NqyFJvK8Z3d0CHuQJ1PT-5" target="NqyFJvK8Z3d0CHuQJ1PT-8">
          <mxGeometry relative="1" as="geometry" />
        </mxCell>
        <mxCell id="NqyFJvK8Z3d0CHuQJ1PT-5" value="Ask for Bid Price" style="rounded=1;whiteSpace=wrap;html=1;" vertex="1" parent="1">
          <mxGeometry x="315" y="260" width="220" height="50" as="geometry" />
        </mxCell>
        <mxCell id="NqyFJvK8Z3d0CHuQJ1PT-11" style="edgeStyle=orthogonalEdgeStyle;rounded=0;orthogonalLoop=1;jettySize=auto;html=1;exitX=0.5;exitY=1;exitDx=0;exitDy=0;entryX=0.5;entryY=0;entryDx=0;entryDy=0;" edge="1" parent="1" source="NqyFJvK8Z3d0CHuQJ1PT-8" target="NqyFJvK8Z3d0CHuQJ1PT-10">
          <mxGeometry relative="1" as="geometry" />
        </mxCell>
        <mxCell id="NqyFJvK8Z3d0CHuQJ1PT-8" value="Add Name and Bid into a dictionary as key and value" style="rounded=1;whiteSpace=wrap;html=1;" vertex="1" parent="1">
          <mxGeometry x="315" y="330" width="220" height="50" as="geometry" />
        </mxCell>
        <mxCell id="NqyFJvK8Z3d0CHuQJ1PT-21" style="edgeStyle=orthogonalEdgeStyle;rounded=0;orthogonalLoop=1;jettySize=auto;html=1;exitX=1;exitY=0.5;exitDx=0;exitDy=0;" edge="1" parent="1" source="NqyFJvK8Z3d0CHuQJ1PT-10">
          <mxGeometry relative="1" as="geometry">
            <mxPoint x="600" y="520" as="targetPoint" />
            <Array as="points">
              <mxPoint x="600" y="485" />
            </Array>
          </mxGeometry>
        </mxCell>
        <mxCell id="NqyFJvK8Z3d0CHuQJ1PT-10" value="Ask if there are other &lt;br&gt;users who want to bid" style="rhombus;whiteSpace=wrap;html=1;" vertex="1" parent="1">
          <mxGeometry x="335" y="410" width="175" height="150" as="geometry" />
        </mxCell>
        <mxCell id="NqyFJvK8Z3d0CHuQJ1PT-19" style="edgeStyle=orthogonalEdgeStyle;rounded=0;orthogonalLoop=1;jettySize=auto;html=1;entryX=0.5;entryY=0;entryDx=0;entryDy=0;exitX=0;exitY=0.5;exitDx=0;exitDy=0;" edge="1" parent="1" source="NqyFJvK8Z3d0CHuQJ1PT-10" target="NqyFJvK8Z3d0CHuQJ1PT-17">
          <mxGeometry relative="1" as="geometry" />
        </mxCell>
        <mxCell id="NqyFJvK8Z3d0CHuQJ1PT-15" value="Yes" style="text;html=1;strokeColor=none;fillColor=none;align=center;verticalAlign=middle;whiteSpace=wrap;rounded=0;" vertex="1" parent="1">
          <mxGeometry x="275" y="460" width="60" height="30" as="geometry" />
        </mxCell>
        <mxCell id="NqyFJvK8Z3d0CHuQJ1PT-20" style="edgeStyle=orthogonalEdgeStyle;rounded=0;orthogonalLoop=1;jettySize=auto;html=1;entryX=0;entryY=0.5;entryDx=0;entryDy=0;" edge="1" parent="1" source="NqyFJvK8Z3d0CHuQJ1PT-17" target="NqyFJvK8Z3d0CHuQJ1PT-4">
          <mxGeometry relative="1" as="geometry">
            <mxPoint x="80" y="200" as="targetPoint" />
            <Array as="points">
              <mxPoint x="230" y="600" />
              <mxPoint x="81" y="600" />
              <mxPoint x="81" y="205" />
            </Array>
          </mxGeometry>
        </mxCell>
        <mxCell id="NqyFJvK8Z3d0CHuQJ1PT-17" value="Clear the screen" style="rounded=1;whiteSpace=wrap;html=1;" vertex="1" parent="1">
          <mxGeometry x="170" y="520" width="120" height="50" as="geometry" />
        </mxCell>
        <mxCell id="NqyFJvK8Z3d0CHuQJ1PT-22" value="Find the highest bid in the&amp;nbsp;&lt;br&gt;dictionary and declare them&lt;br&gt;as the winner" style="rounded=1;whiteSpace=wrap;html=1;" vertex="1" parent="1">
          <mxGeometry x="510" y="520" width="200" height="90" as="geometry" />
        </mxCell>
      </root>
    </mxGraphModel>
  </diagram>
</mxfile>
